<svg xmlns="http://www.w3.org/2000/svg" xmlns:xlink="http://www.w3.org/1999/xlink" version="1.1" width="1000" height="1000" viewBox="0 0 1000 1000" xml:space="preserve">
<desc>Created with Fabric.js 3.5.0</desc>
<defs>
</defs>
<rect x="0" y="0" width="100%" height="100%" fill="rgba(255,255,255,0)"/>
<g transform="matrix(5.7352 0 0 5.7352 614.7039 500.0006)" id="206383">
<circle style="stroke: none; stroke-width: 1; stroke-dasharray: none; stroke-linecap: butt; stroke-dashoffset: 0; stroke-linejoin: miter; stroke-miterlimit: 4; is-custom-font: none; font-file-url: none; fill: rgb(252,163,17); fill-rule: nonzero; opacity: 1;" cx="0" cy="0" r="16"/>
</g>
<g transform="matrix(5.7352 0 0 5.7352 614.7039 500.0006)" id="774117">
<linearGradient id="SVGID_251" gradientUnits="userSpaceOnUse" gradientTransform="matrix(1 0 0 1 -367 -859)" x1="351" y1="842.852" x2="370.497" y2="881.207">
<stop offset="0%" style="stop-color:rgb(9,198,249);stop-opacity: 1"/>
<stop offset="100%" style="stop-color:rgb(4,93,233);stop-opacity: 1"/>
</linearGradient>
<circle style="stroke: none; stroke-width: 1; stroke-dasharray: none; stroke-linecap: butt; stroke-dashoffset: 0; stroke-linejoin: miter; stroke-miterlimit: 4; is-custom-font: none; font-file-url: none; fill: url(#SVGID_251); fill-rule: nonzero; opacity: 1;" cx="0" cy="0" r="16"/>
</g>
<g transform="matrix(5.7352 0 0 5.7352 611.3944 498.8531)" id="468141">
<path style="stroke: none; stroke-width: 1; stroke-dasharray: none; stroke-linecap: butt; stroke-dashoffset: 0; stroke-linejoin: miter; stroke-miterlimit: 4; is-custom-font: none; font-file-url: none; fill: rgb(255,255,255); fill-rule: nonzero; opacity: 1;" transform=" translate(-366.423, -858.8)" d="M 362.193 863 V 860.012 L 359.373 854.6 H 361.113 L 362.973 858.476 L 364.821 854.6 H 366.537 L 363.729 860.012 V 863 H 362.193 Z M 369.477 863 V 855.836 H 367.029 V 854.6 H 373.473 V 855.836 H 371.013 V 863 H 369.477 Z" stroke-linecap="round"/>
</g>
<g transform="matrix(5.7352 0 0 5.7352 844.1105 500.0006)" id="278473">
<circle style="stroke: none; stroke-width: 1; stroke-dasharray: none; stroke-linecap: butt; stroke-dashoffset: 0; stroke-linejoin: miter; stroke-miterlimit: 4; is-custom-font: none; font-file-url: none; fill: rgb(252,163,17); fill-rule: nonzero; opacity: 1;" cx="0" cy="0" r="16"/>
</g>
<g transform="matrix(5.7352 0 0 5.7352 844.1105 500.0006)" id="721885">
<linearGradient id="SVGID_252" gradientUnits="userSpaceOnUse" gradientTransform="matrix(1 0 0 1 -407 -859)" x1="391" y1="842.852" x2="410.497" y2="881.207">
<stop offset="0%" style="stop-color:rgb(9,198,249);stop-opacity: 1"/>
<stop offset="100%" style="stop-color:rgb(4,93,233);stop-opacity: 1"/>
</linearGradient>
<circle style="stroke: none; stroke-width: 1; stroke-dasharray: none; stroke-linecap: butt; stroke-dashoffset: 0; stroke-linejoin: miter; stroke-miterlimit: 4; is-custom-font: none; font-file-url: none; fill: url(#SVGID_252); fill-rule: nonzero; opacity: 1;" cx="0" cy="0" r="16"/>
</g>
<g transform="matrix(5.7352 0 0 5.7352 844.1215 498.8531)" id="397708">
<path style="stroke: none; stroke-width: 1; stroke-dasharray: none; stroke-linecap: butt; stroke-dashoffset: 0; stroke-linejoin: miter; stroke-miterlimit: 4; is-custom-font: none; font-file-url: none; fill: rgb(255,255,255); fill-rule: nonzero; opacity: 1;" transform=" translate(-407.002, -858.8)" d="M 402.929 863 V 854.6 H 404.465 V 861.8 H 408.185 V 863 H 402.929 Z M 409.539 863 V 854.6 H 411.075 V 863 H 409.539 Z" stroke-linecap="round"/>
</g>
<g transform="matrix(5.7352 0 0 5.7352 385.2973 500.0006)" id="593302">
<circle style="stroke: none; stroke-width: 1; stroke-dasharray: none; stroke-linecap: butt; stroke-dashoffset: 0; stroke-linejoin: miter; stroke-miterlimit: 4; is-custom-font: none; font-file-url: none; fill: rgb(252,163,17); fill-rule: nonzero; opacity: 1;" cx="0" cy="0" r="16"/>
</g>
<g transform="matrix(5.7352 0 0 5.7352 385.2973 500.0006)" id="792467">
<linearGradient id="SVGID_253" gradientUnits="userSpaceOnUse" gradientTransform="matrix(1 0 0 1 -327 -859)" x1="311" y1="842.852" x2="330.497" y2="881.207">
<stop offset="0%" style="stop-color:rgb(9,198,249);stop-opacity: 1"/>
<stop offset="100%" style="stop-color:rgb(4,93,233);stop-opacity: 1"/>
</linearGradient>
<circle style="stroke: none; stroke-width: 1; stroke-dasharray: none; stroke-linecap: butt; stroke-dashoffset: 0; stroke-linejoin: miter; stroke-miterlimit: 4; is-custom-font: none; font-file-url: none; fill: url(#SVGID_253); fill-rule: nonzero; opacity: 1;" cx="0" cy="0" r="16"/>
</g>
<g transform="matrix(5.7352 0 0 5.7352 381.2365 498.8531)" id="378472">
<path style="stroke: none; stroke-width: 1; stroke-dasharray: none; stroke-linecap: butt; stroke-dashoffset: 0; stroke-linejoin: miter; stroke-miterlimit: 4; is-custom-font: none; font-file-url: none; fill: rgb(255,255,255); fill-rule: nonzero; opacity: 1;" transform=" translate(-326.292, -858.8)" d="M 320.816 863 V 854.6 H 322.352 V 863 H 320.816 Z M 327.652 863.144 C 326.86 863.144 326.168 862.964 325.576 862.604 C 324.984 862.244 324.524 861.744 324.196 861.104 C 323.868 860.456 323.704 859.704 323.704 858.848 C 323.704 857.984 323.872 857.224 324.208 856.568 C 324.552 855.904 325.036 855.388 325.66 855.02 C 326.292 854.644 327.04 854.456 327.904 854.456 C 328.888 854.456 329.704 854.692 330.352 855.164 C 331 855.636 331.42 856.288 331.612 857.12 H 329.896 C 329.768 856.728 329.536 856.424 329.2 856.208 C 328.864 855.984 328.432 855.872 327.904 855.872 C 327.064 855.872 326.416 856.14 325.96 856.676 C 325.504 857.204 325.276 857.932 325.276 858.86 C 325.276 859.788 325.5 860.508 325.948 861.02 C 326.404 861.524 327.02 861.776 327.796 861.776 C 328.556 861.776 329.128 861.572 329.512 861.164 C 329.904 860.748 330.14 860.204 330.22 859.532 H 328.096 V 858.38 H 331.768 V 863 H 330.352 L 330.232 861.896 C 329.96 862.296 329.62 862.604 329.212 862.82 C 328.804 863.036 328.284 863.144 327.652 863.144 Z" stroke-linecap="round"/>
</g>
<g transform="matrix(5.7352 0 0 5.7352 155.8907 500.0006)" id="665420">
<circle style="stroke: none; stroke-width: 1; stroke-dasharray: none; stroke-linecap: butt; stroke-dashoffset: 0; stroke-linejoin: miter; stroke-miterlimit: 4; is-custom-font: none; font-file-url: none; fill: rgb(252,163,17); fill-rule: nonzero; opacity: 1;" cx="0" cy="0" r="16"/>
</g>
<g transform="matrix(5.7352 0 0 5.7352 155.8907 500.0006)" id="115687">
<linearGradient id="SVGID_254" gradientUnits="userSpaceOnUse" gradientTransform="matrix(1 0 0 1 -287 -859)" x1="271" y1="842.852" x2="290.497" y2="881.207">
<stop offset="0%" style="stop-color:rgb(9,198,249);stop-opacity: 1"/>
<stop offset="100%" style="stop-color:rgb(4,93,233);stop-opacity: 1"/>
</linearGradient>
<circle style="stroke: none; stroke-width: 1; stroke-dasharray: none; stroke-linecap: butt; stroke-dashoffset: 0; stroke-linejoin: miter; stroke-miterlimit: 4; is-custom-font: none; font-file-url: none; fill: url(#SVGID_254); fill-rule: nonzero; opacity: 1;" cx="0" cy="0" r="16"/>
</g>
<g transform="matrix(5.7352 0 0 5.7352 151.5689 498.8531)" id="700986">
<path style="stroke: none; stroke-width: 1; stroke-dasharray: none; stroke-linecap: butt; stroke-dashoffset: 0; stroke-linejoin: miter; stroke-miterlimit: 4; is-custom-font: none; font-file-url: none; fill: rgb(255,255,255); fill-rule: nonzero; opacity: 1;" transform=" translate(-286.2465, -858.8)" d="M 279.816 863 V 854.6 H 285.24 V 855.836 H 281.352 V 858.188 H 284.496 V 859.4 H 281.352 V 863 H 279.816 Z M 286.425 863 V 854.6 H 289.797 C 290.669 854.6 291.333 854.804 291.789 855.212 C 292.253 855.612 292.485 856.128 292.485 856.76 C 292.485 857.288 292.341 857.712 292.053 858.032 C 291.773 858.344 291.429 858.556 291.021 858.668 C 291.501 858.764 291.897 859.004 292.209 859.388 C 292.521 859.764 292.677 860.204 292.677 860.708 C 292.677 861.372 292.437 861.92 291.957 862.352 C 291.477 862.784 290.797 863 289.917 863 H 286.425 Z M 287.961 858.128 H 289.569 C 290.001 858.128 290.333 858.028 290.565 857.828 C 290.797 857.628 290.913 857.344 290.913 856.976 C 290.913 856.624 290.797 856.348 290.565 856.148 C 290.341 855.94 290.001 855.836 289.545 855.836 H 287.961 V 858.128 Z M 287.961 861.752 H 289.677 C 290.133 861.752 290.485 861.648 290.733 861.44 C 290.989 861.224 291.117 860.924 291.117 860.54 C 291.117 860.148 290.985 859.84 290.721 859.616 C 290.457 859.392 290.101 859.28 289.653 859.28 H 287.961 V 861.752 Z" stroke-linecap="round"/>
</g>
</svg>