<svg xmlns="http://www.w3.org/2000/svg" xmlns:xlink="http://www.w3.org/1999/xlink" version="1.1" width="1000" height="1000" viewBox="0 0 1000 1000" xml:space="preserve">
<desc>Created with Fabric.js 3.5.0</desc>
<defs>
</defs>
<rect x="0" y="0" width="100%" height="100%" fill="rgba(255,255,255,0)"/>
<g transform="matrix(1.8416 0 0 1.8416 499.9913 499.9913)" id="359572">
<path style="stroke: rgb(0,146,69); stroke-width: 26; stroke-dasharray: none; stroke-linecap: butt; stroke-dashoffset: 0; stroke-linejoin: miter; stroke-miterlimit: 4; is-custom-font: none; font-file-url: none; fill: none; fill-rule: nonzero; opacity: 1;" vector-effect="non-scaling-stroke" transform=" translate(-256, -256)" d="M 256 512 c 141.4 0 256 -114.6 256 -256 S 397.4 0 256 0 S 0 114.6 0 256 S 114.6 512 256 512 z M 369 209 L 241 337 c -9.4 9.4 -24.6 9.4 -33.9 0 l -64 -64 c -9.4 -9.4 -9.4 -24.6 0 -33.9 s 24.6 -9.4 33.9 0 l 47 47 L 335 175 c 9.4 -9.4 24.6 -9.4 33.9 0 s 9.4 24.6 0 33.9 z" stroke-linecap="round"/>
</g>
</svg>