<svg xmlns="http://www.w3.org/2000/svg" xmlns:xlink="http://www.w3.org/1999/xlink" version="1.1" width="1000" height="1000" viewBox="0 0 1000 1000" xml:space="preserve">
<desc>Created with Fabric.js 3.5.0</desc>
<defs>
</defs>
<rect x="0" y="0" width="100%" height="100%" fill="rgba(255,255,255,0)"/>
<g transform="matrix(8.4253 0 0 8.4253 366.1121 399.6626)" id="693576">
<path style="stroke: none; stroke-width: 1; stroke-dasharray: none; stroke-linecap: butt; stroke-dashoffset: 0; stroke-linejoin: miter; stroke-miterlimit: 4; is-custom-font: none; font-file-url: none; fill: rgb(252,163,17); fill-rule: nonzero; opacity: 1;" transform=" translate(-649.2491, -877.2491)" d="M 652.843 867.416 C 650.479 866.861 648.019 866.861 645.655 867.416 C 642.559 868.142 640.142 870.559 639.416 873.655 C 638.861 876.019 638.861 878.479 639.416 880.843 C 640.142 883.939 642.559 886.357 645.655 887.083 C 648.019 887.637 650.479 887.637 652.843 887.083 C 655.939 886.357 658.357 883.939 659.083 880.843 C 659.637 878.479 659.637 876.019 659.083 873.655 C 658.357 870.559 655.939 868.142 652.843 867.416 Z" stroke-linecap="round"/>
</g>
<g transform="matrix(8.4253 0 0 8.4253 366.1121 399.6626)" id="176650">
<linearGradient id="SVGID_259" gradientUnits="userSpaceOnUse" gradientTransform="matrix(1 0 0 1 0 0)" x1="639" y1="866.778" x2="668.245" y2="924.311">
<stop offset="0%" style="stop-color:rgb(9,198,249);stop-opacity: 1"/>
<stop offset="100%" style="stop-color:rgb(4,93,233);stop-opacity: 1"/>
</linearGradient>
<path style="stroke: none; stroke-width: 1; stroke-dasharray: none; stroke-linecap: butt; stroke-dashoffset: 0; stroke-linejoin: miter; stroke-miterlimit: 4; is-custom-font: none; font-file-url: none; fill: url(#SVGID_259); fill-rule: nonzero; opacity: 1;" transform=" translate(-649.2491, -877.2491)" d="M 652.843 867.416 C 650.479 866.861 648.019 866.861 645.655 867.416 C 642.559 868.142 640.142 870.559 639.416 873.655 C 638.861 876.019 638.861 878.479 639.416 880.843 C 640.142 883.939 642.559 886.357 645.655 887.083 C 648.019 887.637 650.479 887.637 652.843 887.083 C 655.939 886.357 658.357 883.939 659.083 880.843 C 659.637 878.479 659.637 876.019 659.083 873.655 C 658.357 870.559 655.939 868.142 652.843 867.416 Z" stroke-linecap="round"/>
</g>
<g transform="matrix(8.4253 0 0 8.4253 366.1121 631.3725)" id="447569">
<path style="stroke: none; stroke-width: 1; stroke-dasharray: none; stroke-linecap: butt; stroke-dashoffset: 0; stroke-linejoin: miter; stroke-miterlimit: 4; is-custom-font: none; font-file-url: none; fill: rgb(252,163,17); fill-rule: nonzero; opacity: 1;" transform=" translate(-649.2491, -904.7509)" d="M 652.843 894.917 C 650.479 894.363 648.019 894.363 645.655 894.917 C 642.559 895.643 640.142 898.061 639.416 901.157 C 638.861 903.521 638.861 905.981 639.416 908.345 C 640.142 911.441 642.559 913.858 645.655 914.584 C 648.019 915.139 650.479 915.139 652.843 914.584 C 655.939 913.858 658.357 911.441 659.083 908.345 C 659.637 905.981 659.637 903.521 659.083 901.157 C 658.357 898.061 655.939 895.643 652.843 894.917 Z" stroke-linecap="round"/>
</g>
<g transform="matrix(8.4253 0 0 8.4253 366.1121 631.3725)" id="614585">
<linearGradient id="SVGID_260" gradientUnits="userSpaceOnUse" gradientTransform="matrix(1 0 0 1 0 0)" x1="639" y1="866.778" x2="668.245" y2="924.311">
<stop offset="0%" style="stop-color:rgb(9,198,249);stop-opacity: 1"/>
<stop offset="100%" style="stop-color:rgb(4,93,233);stop-opacity: 1"/>
</linearGradient>
<path style="stroke: none; stroke-width: 1; stroke-dasharray: none; stroke-linecap: butt; stroke-dashoffset: 0; stroke-linejoin: miter; stroke-miterlimit: 4; is-custom-font: none; font-file-url: none; fill: url(#SVGID_260); fill-rule: nonzero; opacity: 1;" transform=" translate(-649.2491, -904.7509)" d="M 652.843 894.917 C 650.479 894.363 648.019 894.363 645.655 894.917 C 642.559 895.643 640.142 898.061 639.416 901.157 C 638.861 903.521 638.861 905.981 639.416 908.345 C 640.142 911.441 642.559 913.858 645.655 914.584 C 648.019 915.139 650.479 915.139 652.843 914.584 C 655.939 913.858 658.357 911.441 659.083 908.345 C 659.637 905.981 659.637 903.521 659.083 901.157 C 658.357 898.061 655.939 895.643 652.843 894.917 Z" stroke-linecap="round"/>
</g>
<g transform="matrix(8.4253 0 0 8.4253 597.822 399.6626)" id="349805">
<path style="stroke: none; stroke-width: 1; stroke-dasharray: none; stroke-linecap: butt; stroke-dashoffset: 0; stroke-linejoin: miter; stroke-miterlimit: 4; is-custom-font: none; font-file-url: none; fill: rgb(252,163,17); fill-rule: nonzero; opacity: 1;" transform=" translate(-676.7509, -877.2491)" d="M 680.345 867.416 C 677.981 866.861 675.521 866.861 673.157 867.416 C 670.061 868.142 667.643 870.559 666.917 873.655 C 666.363 876.019 666.363 878.479 666.917 880.843 C 667.643 883.939 670.061 886.357 673.157 887.083 C 675.521 887.637 677.981 887.637 680.345 887.083 C 683.441 886.357 685.858 883.939 686.584 880.843 C 687.139 878.479 687.139 876.019 686.584 873.655 C 685.858 870.559 683.441 868.142 680.345 867.416 Z" stroke-linecap="round"/>
</g>
<g transform="matrix(8.4253 0 0 8.4253 597.822 399.6626)" id="232568">
<linearGradient id="SVGID_261" gradientUnits="userSpaceOnUse" gradientTransform="matrix(1 0 0 1 0 0)" x1="639" y1="866.778" x2="668.245" y2="924.311">
<stop offset="0%" style="stop-color:rgb(9,198,249);stop-opacity: 1"/>
<stop offset="100%" style="stop-color:rgb(4,93,233);stop-opacity: 1"/>
</linearGradient>
<path style="stroke: none; stroke-width: 1; stroke-dasharray: none; stroke-linecap: butt; stroke-dashoffset: 0; stroke-linejoin: miter; stroke-miterlimit: 4; is-custom-font: none; font-file-url: none; fill: url(#SVGID_261); fill-rule: nonzero; opacity: 1;" transform=" translate(-676.7509, -877.2491)" d="M 680.345 867.416 C 677.981 866.861 675.521 866.861 673.157 867.416 C 670.061 868.142 667.643 870.559 666.917 873.655 C 666.363 876.019 666.363 878.479 666.917 880.843 C 667.643 883.939 670.061 886.357 673.157 887.083 C 675.521 887.637 677.981 887.637 680.345 887.083 C 683.441 886.357 685.858 883.939 686.584 880.843 C 687.139 878.479 687.139 876.019 686.584 873.655 C 685.858 870.559 683.441 868.142 680.345 867.416 Z" stroke-linecap="round"/>
</g>
<g transform="matrix(8.4253 0 0 8.4253 597.822 631.3725)" id="191710">
<path style="stroke: none; stroke-width: 1; stroke-dasharray: none; stroke-linecap: butt; stroke-dashoffset: 0; stroke-linejoin: miter; stroke-miterlimit: 4; is-custom-font: none; font-file-url: none; fill: rgb(252,163,17); fill-rule: nonzero; opacity: 1;" transform=" translate(-676.7509, -904.7509)" d="M 680.345 894.917 C 677.981 894.363 675.521 894.363 673.157 894.917 C 670.061 895.643 667.643 898.061 666.917 901.157 C 666.363 903.521 666.363 905.981 666.917 908.345 C 667.643 911.441 670.061 913.858 673.157 914.584 C 675.521 915.139 677.981 915.139 680.345 914.584 C 683.441 913.858 685.858 911.441 686.584 908.345 C 687.139 905.981 687.139 903.521 686.584 901.157 C 685.858 898.061 683.441 895.643 680.345 894.917 Z" stroke-linecap="round"/>
</g>
<g transform="matrix(8.4253 0 0 8.4253 597.822 631.3725)" id="978672">
<linearGradient id="SVGID_262" gradientUnits="userSpaceOnUse" gradientTransform="matrix(1 0 0 1 0 0)" x1="639" y1="866.778" x2="668.245" y2="924.311">
<stop offset="0%" style="stop-color:rgb(9,198,249);stop-opacity: 1"/>
<stop offset="100%" style="stop-color:rgb(4,93,233);stop-opacity: 1"/>
</linearGradient>
<path style="stroke: none; stroke-width: 1; stroke-dasharray: none; stroke-linecap: butt; stroke-dashoffset: 0; stroke-linejoin: miter; stroke-miterlimit: 4; is-custom-font: none; font-file-url: none; fill: url(#SVGID_262); fill-rule: nonzero; opacity: 1;" transform=" translate(-676.7509, -904.7509)" d="M 680.345 894.917 C 677.981 894.363 675.521 894.363 673.157 894.917 C 670.061 895.643 667.643 898.061 666.917 901.157 C 666.363 903.521 666.363 905.981 666.917 908.345 C 667.643 911.441 670.061 913.858 673.157 914.584 C 675.521 915.139 677.981 915.139 680.345 914.584 C 683.441 913.858 685.858 911.441 686.584 908.345 C 687.139 905.981 687.139 903.521 686.584 901.157 C 685.858 898.061 683.441 895.643 680.345 894.917 Z" stroke-linecap="round"/>
</g>
</svg>