<svg xmlns="http://www.w3.org/2000/svg" xmlns:xlink="http://www.w3.org/1999/xlink" version="1.1" width="1000" height="1000" viewBox="0 0 1000 1000" xml:space="preserve">
<desc>Created with Fabric.js 3.5.0</desc>
<defs>
</defs>
<rect x="0" y="0" width="100%" height="100%" fill="rgba(255,255,255,0)"/>
<g transform="matrix(8.1879 0 0 8.1879 477.7948 481.838)" id="668552">
<linearGradient id="SVGID_263" gradientUnits="userSpaceOnUse" gradientTransform="matrix(1 0 0 1 0 0)" x1="518" y1="860.718" x2="559.936" y2="925.635">
<stop offset="0%" style="stop-color:rgb(9,198,249);stop-opacity: 1"/>
<stop offset="100%" style="stop-color:rgb(4,93,233);stop-opacity: 1"/>
</linearGradient>
<path style="stroke: none; stroke-width: 1; stroke-dasharray: none; stroke-linecap: butt; stroke-dashoffset: 0; stroke-linejoin: miter; stroke-miterlimit: 4; is-custom-font: none; font-file-url: none; fill: url(#SVGID_263); fill-rule: evenodd; opacity: 1;" transform=" translate(-542, -891.5001)" d="M 550.92 905.485 L 549.522 905.793 V 907.652 C 549.522 910.839 547.518 913.55 544.722 914.555 V 919.56 C 544.722 920.908 543.647 922 542.322 922 C 540.996 922 539.921 920.908 539.921 919.56 V 914.555 C 537.125 913.55 535.121 910.839 535.121 907.652 V 905.929 C 534.913 905.887 534.704 905.843 534.496 905.797 L 533.08 905.485 C 526.17 903.963 520.702 898.597 518.962 891.63 C 517.679 886.496 517.679 881.118 518.962 875.984 C 520.702 869.018 526.17 863.651 533.08 862.129 L 534.496 861.817 C 539.441 860.728 544.559 860.728 549.504 861.817 L 550.92 862.129 C 557.83 863.651 563.298 869.018 565.038 875.985 C 566.321 881.118 566.321 886.496 565.038 891.63 C 563.298 898.597 557.83 903.963 550.92 905.485 Z M 544.722 906.508 C 544.443 906.53 544.165 906.548 543.886 906.563 C 542.565 906.635 541.242 906.631 539.921 906.552 V 907.652 C 539.921 908.999 540.996 910.092 542.322 910.092 C 543.647 910.092 544.722 908.999 544.722 907.652 V 906.508 Z M 544.801 874.116 C 545.629 874.789 545.764 876.018 545.101 876.859 L 541.196 881.821 H 546.802 C 547.54 881.821 548.213 882.251 548.533 882.928 C 548.852 883.604 548.762 884.407 548.301 884.993 L 541.901 893.126 C 541.238 893.968 540.03 894.104 539.202 893.431 C 538.374 892.757 538.24 891.529 538.902 890.687 L 542.807 885.725 H 537.201 C 536.463 885.725 535.79 885.295 535.471 884.619 C 535.151 883.943 535.241 883.14 535.702 882.554 L 542.102 874.421 C 542.765 873.579 543.973 873.442 544.801 874.116 Z" stroke-linecap="round"/>
</g>
</svg>